<svg xmlns="http://www.w3.org/2000/svg" width="1131.947mm" height="800mm" viewBox="0 0 1131.947 800"><g style="fill:#252f5e;fill-opacity:1"><path d="M0 0c-.493-.629-1.271-.986-2.16-.986-.875 0-1.669.357-2.145.986-.552.684-.843 1.822-.843 3.258 0 1.435.291 2.558.843 3.26.476.627 1.27.969 2.145.969.889 0 1.668-.342 2.16-.969.552-.702.836-1.825.836-3.26C.836 1.822.552.684 0 0m-2.16 9.154c-1.51 0-2.836-.49-3.734-1.408-1.026-1.014-1.591-2.609-1.591-4.488 0-1.878.565-3.473 1.591-4.487C-4.996-2.15-3.67-2.65-2.16-2.65c1.509 0 2.852.5 3.749 1.421C2.599-.217 3.163 1.38 3.163 3.258c0 1.879-.564 3.474-1.574 4.488-.898.918-2.24 1.408-3.749 1.408" style="fill:#252f5e;fill-opacity:1;fill-rule:nonzero;stroke:none" transform="matrix(18.2815 0 0 -18.2815 531.553 512.53)"/></g><g style="fill:#252f5e;fill-opacity:1"><path d="M0 0c-.493-.628-1.27-.986-2.161-.986-.874 0-1.668.358-2.148.986-.546.684-.838 1.822-.838 3.258 0 1.435.292 2.558.838 3.26.479.627 1.274.969 2.148.969.891 0 1.669-.342 2.161-.967.551-.704.834-1.827.834-3.262C.834 1.822.551.684 0 0m1.59 7.746c-.902.918-2.242 1.408-3.751 1.408s-2.835-.49-3.74-1.408C-6.92 6.732-7.48 5.137-7.48 3.258c0-1.877.56-3.473 1.579-4.487.905-.921 2.231-1.421 3.74-1.421 1.509 0 2.849.5 3.751 1.421 1.012 1.014 1.572 2.61 1.572 4.487 0 1.879-.56 3.474-1.572 4.488" style="fill:#252f5e;fill-opacity:1;fill-rule:nonzero;stroke:none" transform="matrix(18.2815 0 0 -18.2815 996.285 512.53)"/></g><g style="fill:#252f5e;fill-opacity:1"><path d="M0 0c-.13.117-.287.387-.287.79v4.095l3.821 6.401H.918c.189-.188.207-.491-.022-.85l-2.069-3.582c-1.74 3.148-1.738 3.237-2.053 3.81-.246.434-.454.622-.919.622h-2.061c.164-.151.332-.38.685-.966l3.045-5.407V.79c0-.403-.154-.673-.285-.79Z" style="fill:#252f5e;fill-opacity:1;fill-rule:nonzero;stroke:none" transform="matrix(18.2815 0 0 -18.2815 298.526 556.057)"/></g><g style="fill:#252f5e;fill-opacity:1"><path d="M0 0c.646.416.796 1.021.796 1.656 0 1.237-1.089 1.805-2.136 1.805-.223 0-.764-.006-1.107-.065V-.219C-1.729-.42-.576-.37 0 0m-2.447 5.124c.407-.047 1.238.006 1.595.191.358.187.768.46.768 1.17 0 .678-.594 1.277-1.456 1.277-.324 0-.594-.018-.907-.116zM-4.922-1.9c.13.117.286.386.286.79v9.706c0 .402-.156.674-.286.79h3.736c1.796 0 3.36-.865 3.36-2.544 0-.711-.326-1.719-1.155-2.162 1.006-.385 2.072-1.313 2.072-2.887 0-1.167-.577-2.191-1.359-2.779C1.011-1.531.178-1.9-1.186-1.9Z" style="fill:#252f5e;fill-opacity:1;fill-rule:nonzero;stroke:none" transform="matrix(18.2815 0 0 -18.2815 745.986 521.315)"/></g><g style="fill:#252f5e;fill-opacity:1"><path d="M0 0c0-.403-.156-.673-.286-.79h2.76c-.13.117-.286.387-.286.79v4.409L5.393-.168c.296-.434.527-.622.991-.622h2.213c-.18.152-.376.379-.796.966L4.185 5.301l3.697 5.195h-2.72c.141-.184.158-.416-.106-.859L2.188 5.503v4.203c0 .402.156.674.286.79h-2.76c.13-.116.286-.388.286-.79Z" style="fill:#252f5e;fill-opacity:1;fill-rule:nonzero;stroke:none" transform="matrix(18.2815 0 0 -18.2815 5.229 541.613)"/></g><g style="fill:#6bb340;fill-opacity:1"><path d="M0 0a1.59 1.59 0 1 0-.201 3.175 1.586 1.586 0 0 0 1.68-1.488A1.588 1.588 0 0 0 0 0m14.646 2.361c-1.027 1.042-2.731.862-3.736-.202C9.605.787 8.589.275 7.381.329 5.691.401 4.858 1.706 3.99 3.354 3.088 5.077 1.705 6.035-.023 6.035c-2.714 0-4.346-2.2-4.346-4.652 0-3.774 2.653-6.03 4.491-6.982 1.526-.794 3.225-1.126 4.736-1.163A14.2 14.2 0 0 0 4.209-9.7H7.316c-.306.844-.578 2.131-.659 3.036 4.551.591 6.712 2.66 7.897 4.628.53.864.814 1.759.81 2.565-.003.705-.226 1.347-.718 1.832" style="fill:#6bb340;fill-opacity:1;fill-rule:nonzero;stroke:none" transform="matrix(18.2815 0 0 -18.2815 851.07 110.329)"/></g><g style="fill:#252f5e;fill-opacity:1"><path d="M0 0h-1.329v-3.975h-2.537v-1.041h7.88v1.041H0Z" style="fill:#252f5e;fill-opacity:1;fill-rule:nonzero;stroke:none" transform="matrix(18.2815 0 0 -18.2815 765.106 701.273)"/></g><g style="fill:#252f5e;fill-opacity:1"><path d="M0 0h.865c.327 1.668.555 3.75.691 5.147.074.753.077 1.149-.6 1.149h-5.921V5.254H0Z" style="fill:#252f5e;fill-opacity:1;fill-rule:nonzero;stroke:none" transform="matrix(18.2815 0 0 -18.2815 797.402 755.475)"/></g><path d="M-26.661 46.42h-25.621v-9.7h25.621zm-30.277 7.38h40.77V29.355h-46.607v18.588c0 3.446 1.493 5.859 5.837 5.859" style="fill:#252f5e;fill-opacity:1;fill-rule:nonzero;stroke:none;stroke-width:7.07568" transform="matrix(2.5837 0 0 2.5837 701.733 563.867)"/><g style="fill:#252f5e;fill-opacity:1"><path d="M0 0h-1.482v-2.047c0-.484.21-.826.823-.826h5.6v1.041H0Z" style="fill:#252f5e;fill-opacity:1;fill-rule:nonzero;stroke:none" transform="matrix(18.2815 0 0 -18.2815 569.991 747.477)"/></g><g style="fill:#252f5e;fill-opacity:1"><path d="M0 0h3.446v-1.623h1.483V0h3.135v1.041H0Z" style="fill:#252f5e;fill-opacity:1;fill-rule:nonzero;stroke:none" transform="matrix(18.2815 0 0 -18.2815 526.019 735.123)"/></g><g style="fill:#252f5e;fill-opacity:1"><path d="M0 0h-1.328v-3.692h-.907V0h-1.33v-3.692h-1.797v-1.041h8.21v1.041H0Z" style="fill:#252f5e;fill-opacity:1;fill-rule:nonzero;stroke:none" transform="matrix(18.2815 0 0 -18.2815 276.175 706.433)"/></g><g style="fill:#252f5e;fill-opacity:1"><path d="M0 0h.866c.325 1.668.554 3.75.691 5.147.073.753.077 1.149-.6 1.149h-6.178V5.254H0Z" style="fill:#252f5e;fill-opacity:1;fill-rule:nonzero;stroke:none" transform="matrix(18.2815 0 0 -18.2815 289.85 755.475)"/></g><g style="fill:#252f5e;fill-opacity:1"><path d="M0 0h-1.481v-1.777h-3.391v-1.041h8.213v1.041H0Z" style="fill:#252f5e;fill-opacity:1;fill-rule:nonzero;stroke:none" transform="matrix(18.2815 0 0 -18.2815 440.69 741.443)"/></g><g style="fill:#252f5e;fill-opacity:1"><path d="M0 0v-1.408H-2.94V0Zm-3.596-2.303H.659c.614 0 .825.342.825.828v4.229H0V1.041h-2.94v1.713h-1.481v-4.229c0-.486.208-.828.825-.828" style="fill:#252f5e;fill-opacity:1;fill-rule:nonzero;stroke:none" transform="matrix(18.2815 0 0 -18.2815 453.518 689.134)"/></g></svg>